<?xml version="1.0" encoding="UTF-8" standalone="no"?>
<svg
   xmlns:dc="http://purl.org/dc/elements/1.1/"
   xmlns:cc="http://creativecommons.org/ns#"
   xmlns:rdf="http://www.w3.org/1999/02/22-rdf-syntax-ns#"
   xmlns:svg="http://www.w3.org/2000/svg"
   xmlns="http://www.w3.org/2000/svg"
   xmlns:sodipodi="http://sodipodi.sourceforge.net/DTD/sodipodi-0.dtd"
   xmlns:inkscape="http://www.inkscape.org/namespaces/inkscape"
   enable-background="new 0 0 24 24"
   height="24px"
   viewBox="0 0 24 24"
   width="24px"
   fill="#000000"
   version="1.1"
   id="svg6"
   sodipodi:docname="move.svg"
   inkscape:version="0.92.5 (2060ec1f9f, 2020-04-08)">
  <metadata
     id="metadata12">
    <rdf:RDF>
      <cc:Work
         rdf:about="">
        <dc:format>image/svg+xml</dc:format>
        <dc:type
           rdf:resource="http://purl.org/dc/dcmitype/StillImage" />
        <dc:title></dc:title>
      </cc:Work>
    </rdf:RDF>
  </metadata>
  <defs
     id="defs10" />
  <sodipodi:namedview
     pagecolor="#ffffff"
     bordercolor="#666666"
     borderopacity="1"
     objecttolerance="10"
     gridtolerance="10"
     guidetolerance="10"
     inkscape:pageopacity="0"
     inkscape:pageshadow="2"
     inkscape:window-width="1920"
     inkscape:window-height="1016"
     id="namedview8"
     showgrid="false"
     inkscape:zoom="9.8333333"
     inkscape:cx="-14.976059"
     inkscape:cy="4.8655475"
     inkscape:window-x="0"
     inkscape:window-y="27"
     inkscape:window-maximized="1"
     inkscape:current-layer="svg6" />
  <rect
     fill="none"
     height="24"
     width="24"
     id="rect2" />
  <path
     style="opacity:1;fill:#000000;fill-opacity:1;fill-rule:evenodd;stroke:#ffffff;stroke-width:0.49133858;stroke-linecap:round;stroke-linejoin:miter;stroke-miterlimit:4;stroke-dasharray:none;stroke-dashoffset:0;stroke-opacity:1;paint-order:markers fill stroke"
     id="path822"
     sodipodi:type="arc"
     sodipodi:cx="11.745765"
     sodipodi:cy="12.101695"
     sodipodi:rx="9.9152546"
     sodipodi:ry="9.9661016"
     sodipodi:start="1.629195"
     sodipodi:end="1.6241064"
     d="M 11.167056,22.050807 A 9.9152546,9.9661016 0 0 1 1.8466847,11.532676 9.9152546,9.9661016 0 0 1 12.299287,2.1511351 9.9152546,9.9661016 0 0 1 21.646253,12.645397 9.9152546,9.9661016 0 0 1 11.217432,22.053638"
     sodipodi:open="true" />
  <g
     transform="matrix(0.02216741,0,0,0.02216741,6.2542395,6.2561218)"
     id="g6"
     style="fill:#f5f5f5;fill-opacity:1;stroke-width:45.11126328">
    <g
       id="g4"
       style="fill:#f5f5f5;fill-opacity:1;stroke-width:45.11126328">
      <path
         inkscape:connector-curvature="0"
         d="m 487.557,237.789 -64,-64 c -3.051,-3.051 -7.659,-3.947 -11.627,-2.304 -3.989,1.643 -6.592,5.547 -6.592,9.856 v 32 h -128 v -128 h 32 c 4.309,0 8.213,-2.603 9.856,-6.592 1.643,-3.989 0.725,-8.576 -2.304,-11.627 l -64,-64 c -4.16,-4.16 -10.923,-4.16 -15.083,0 l -64,64 c -3.051,3.072 -3.968,7.637 -2.325,11.627 1.643,3.989 5.547,6.592 9.856,6.592 h 32 v 128 h -128 v -32 c 0,-4.309 -2.603,-8.213 -6.592,-9.856 -3.925,-1.664 -8.555,-0.747 -11.627,2.304 l -64,64 c -4.16,4.16 -4.16,10.923 0,15.083 l 64,64 c 3.072,3.072 7.68,4.011 11.627,2.304 3.989,-1.621 6.592,-5.525 6.592,-9.835 v -32 h 128 v 128 h -32 c -4.309,0 -8.213,2.603 -9.856,6.592 -1.643,3.989 -0.725,8.576 2.304,11.627 l 64,64 c 2.091,2.069 4.821,3.115 7.552,3.115 2.731,0 5.461,-1.045 7.552,-3.115 l 64,-64 c 3.051,-3.051 3.968,-7.637 2.304,-11.627 -1.664,-3.989 -5.547,-6.592 -9.856,-6.592 h -32 v -128 h 128 v 32 c 0,4.309 2.603,8.213 6.592,9.856 3.947,1.685 8.576,0.747 11.627,-2.304 l 64,-64 c 4.16,-4.181 4.16,-10.922 0,-15.104 z"
         id="path2"
         style="fill:#f5f5f5;fill-opacity:1;stroke-width:45.11126328" />
    </g>
  </g>
</svg>
