<?xml version="1.0" encoding="UTF-8" standalone="no"?>
<!-- Generator: Adobe Illustrator 16.0.0, SVG Export Plug-In . SVG Version: 6.00 Build 0)  -->

<svg
   xmlns:dc="http://purl.org/dc/elements/1.1/"
   xmlns:cc="http://creativecommons.org/ns#"
   xmlns:rdf="http://www.w3.org/1999/02/22-rdf-syntax-ns#"
   xmlns:svg="http://www.w3.org/2000/svg"
   xmlns="http://www.w3.org/2000/svg"
   xmlns:sodipodi="http://sodipodi.sourceforge.net/DTD/sodipodi-0.dtd"
   xmlns:inkscape="http://www.inkscape.org/namespaces/inkscape"
   version="1.1"
   id="Capa_1"
   x="0px"
   y="0px"
   width="93.038px"
   height="93.038px"
   viewBox="0 0 93.038 93.038"
   style="enable-background:new 0 0 93.038 93.038;"
   xml:space="preserve"
   sodipodi:docname="audio-active.svg"
   inkscape:version="0.92.5 (2060ec1f9f, 2020-04-08)"><metadata
   id="metadata41"><rdf:RDF><cc:Work
       rdf:about=""><dc:format>image/svg+xml</dc:format><dc:type
         rdf:resource="http://purl.org/dc/dcmitype/StillImage" /><dc:title></dc:title></cc:Work></rdf:RDF></metadata><defs
   id="defs39" /><sodipodi:namedview
   pagecolor="#ffffff"
   bordercolor="#666666"
   borderopacity="1"
   objecttolerance="10"
   gridtolerance="10"
   guidetolerance="10"
   inkscape:pageopacity="0"
   inkscape:pageshadow="2"
   inkscape:window-width="1920"
   inkscape:window-height="1016"
   id="namedview37"
   showgrid="false"
   inkscape:zoom="2.5365979"
   inkscape:cx="46.519001"
   inkscape:cy="46.519001"
   inkscape:window-x="0"
   inkscape:window-y="27"
   inkscape:window-maximized="1"
   inkscape:current-layer="Capa_1" />
<g
   id="g4"
   style="fill:#4798eb;fill-opacity:1">
	<path
   d="M46.547,75.521c0,1.639-0.947,3.128-2.429,3.823c-0.573,0.271-1.187,0.402-1.797,0.402c-0.966,0-1.923-0.332-2.696-0.973   l-23.098-19.14H4.225C1.892,59.635,0,57.742,0,55.409V38.576c0-2.334,1.892-4.226,4.225-4.226h12.303l23.098-19.14   c1.262-1.046,3.012-1.269,4.493-0.569c1.481,0.695,2.429,2.185,2.429,3.823L46.547,75.521L46.547,75.521z M62.784,68.919   c-0.103,0.007-0.202,0.011-0.304,0.011c-1.116,0-2.192-0.441-2.987-1.237l-0.565-0.567c-1.482-1.479-1.656-3.822-0.408-5.504   c3.164-4.266,4.834-9.323,4.834-14.628c0-5.706-1.896-11.058-5.484-15.478c-1.366-1.68-1.24-4.12,0.291-5.65l0.564-0.565   c0.844-0.844,1.975-1.304,3.199-1.231c1.192,0.06,2.305,0.621,3.061,1.545c4.977,6.09,7.606,13.484,7.606,21.38   c0,7.354-2.325,14.354-6.725,20.24C65.131,68.216,64.007,68.832,62.784,68.919z M80.252,81.976   c-0.764,0.903-1.869,1.445-3.052,1.495c-0.058,0.002-0.117,0.004-0.177,0.004c-1.119,0-2.193-0.442-2.988-1.237l-0.555-0.555   c-1.551-1.55-1.656-4.029-0.246-5.707c6.814-8.104,10.568-18.396,10.568-28.982c0-11.011-4.019-21.611-11.314-29.847   c-1.479-1.672-1.404-4.203,0.17-5.783l0.554-0.555c0.822-0.826,1.89-1.281,3.115-1.242c1.163,0.033,2.263,0.547,3.036,1.417   c8.818,9.928,13.675,22.718,13.675,36.01C93.04,59.783,88.499,72.207,80.252,81.976z"
   id="path2"
   style="fill:#4798eb;fill-opacity:1" />
</g>
<g
   id="g6">
</g>
<g
   id="g8">
</g>
<g
   id="g10">
</g>
<g
   id="g12">
</g>
<g
   id="g14">
</g>
<g
   id="g16">
</g>
<g
   id="g18">
</g>
<g
   id="g20">
</g>
<g
   id="g22">
</g>
<g
   id="g24">
</g>
<g
   id="g26">
</g>
<g
   id="g28">
</g>
<g
   id="g30">
</g>
<g
   id="g32">
</g>
<g
   id="g34">
</g>
</svg>