<?xml version="1.0" encoding="UTF-8" standalone="no"?>
<svg
   xmlns:dc="http://purl.org/dc/elements/1.1/"
   xmlns:cc="http://creativecommons.org/ns#"
   xmlns:rdf="http://www.w3.org/1999/02/22-rdf-syntax-ns#"
   xmlns:svg="http://www.w3.org/2000/svg"
   xmlns="http://www.w3.org/2000/svg"
   xmlns:sodipodi="http://sodipodi.sourceforge.net/DTD/sodipodi-0.dtd"
   xmlns:inkscape="http://www.inkscape.org/namespaces/inkscape"
   height="24px"
   viewBox="0 0 24 24"
   width="24px"
   fill="#000000"
   version="1.1"
   id="svg6"
   sodipodi:docname="flipv.svg"
   inkscape:version="0.92.5 (2060ec1f9f, 2020-04-08)">
  <metadata
     id="metadata12">
    <rdf:RDF>
      <cc:Work
         rdf:about="">
        <dc:format>image/svg+xml</dc:format>
        <dc:type
           rdf:resource="http://purl.org/dc/dcmitype/StillImage" />
      </cc:Work>
    </rdf:RDF>
  </metadata>
  <defs
     id="defs10" />
  <sodipodi:namedview
     pagecolor="#ffffff"
     bordercolor="#666666"
     borderopacity="1"
     objecttolerance="10"
     gridtolerance="10"
     guidetolerance="10"
     inkscape:pageopacity="0"
     inkscape:pageshadow="2"
     inkscape:window-width="1920"
     inkscape:window-height="1016"
     id="namedview8"
     showgrid="false"
     inkscape:zoom="9.8333333"
     inkscape:cx="12"
     inkscape:cy="12"
     inkscape:window-x="0"
     inkscape:window-y="27"
     inkscape:window-maximized="1"
     inkscape:current-layer="svg6" />
  <path
     d="M0 0h24v24H0V0z"
     fill="none"
     id="path2" />
  <path
     d="m 21.006492,9.0195461 0.0043,-1.9999953 -1.999995,-0.00434 -0.0043,1.9999953 z M 9.0152041,4.9935035 9.0195461,2.9935082 7.0195508,2.9891662 7.0152088,4.9891615 Z M 4.9804775,20.984782 18.980444,21.015176 c 1.099998,0.0024 2.00195,-0.895656 2.004338,-1.995653 l 0.0065,-2.999993 c 0.0012,-0.549999 -0.447828,-1.000975 -0.997827,-1.002169 -0.549999,-0.0012 -1.000974,0.447828 -1.002169,0.997827 l -0.0043,1.999995 c -0.0012,0.549999 -0.452169,0.999021 -1.002168,0.997827 L 5.9848171,18.986957 C 5.4348184,18.985763 4.9857964,18.534788 4.9869905,17.984789 l 0.00434,-1.999995 c 0.00119,-0.549999 -0.447828,-1.000975 -0.9978267,-1.002169 -0.5499987,-0.0012 -1.0009746,0.447828 -1.0021686,0.997827 l -0.00651,2.999992 c -0.00239,1.099998 0.8956559,2.00195 1.9956533,2.004338 z M 3.0152182,4.9804775 l 1.9999953,0.00434 0.00434,-1.9999953 C 3.9195581,2.9824361 3.0176063,3.8804801 3.0152182,4.9804775 Z M 22.999974,12.023881 c 0.0012,-0.549999 -0.447828,-1.000975 -0.997827,-1.002169 L 2.0021946,10.978292 c -0.5499987,-0.0012 -1.0009746,0.447828 -1.0021687,0.997827 -0.001194,0.549999 0.447828,1.000975 0.9978267,1.002169 l 19.9999524,0.04342 c 0.549999,0.0012 1.000975,-0.447828 1.002169,-0.997827 z m -5.984789,-7.0130095 0.0043,-1.9999953 -1.999995,-0.00434 -0.0043,1.9999953 z M 5.0065295,8.98481 5.0108715,6.9848148 3.0108762,6.9804728 3.0065342,8.980468 Z m 8.0086655,-3.9826225 0.0043,-1.9999953 -1.999996,-0.00434 -0.0043,1.9999953 z m 7.999981,0.017368 C 21.017564,3.9195581 20.11952,3.0176063 19.019523,3.0152182 l -0.0043,1.9999953 z"
     id="path4"
     inkscape:connector-curvature="0" />
</svg>
