<?xml version="1.0" encoding="UTF-8" standalone="no"?>
<svg
   xmlns:dc="http://purl.org/dc/elements/1.1/"
   xmlns:cc="http://creativecommons.org/ns#"
   xmlns:rdf="http://www.w3.org/1999/02/22-rdf-syntax-ns#"
   xmlns:svg="http://www.w3.org/2000/svg"
   xmlns="http://www.w3.org/2000/svg"
   xmlns:sodipodi="http://sodipodi.sourceforge.net/DTD/sodipodi-0.dtd"
   xmlns:inkscape="http://www.inkscape.org/namespaces/inkscape"
   height="24px"
   viewBox="0 0 24 24"
   width="24px"
   fill="#000000"
   version="1.1"
   id="svg6"
   sodipodi:docname="font-color.svg"
   inkscape:version="0.92.5 (2060ec1f9f, 2020-04-08)">
  <metadata
     id="metadata12">
    <rdf:RDF>
      <cc:Work
         rdf:about="">
        <dc:format>image/svg+xml</dc:format>
        <dc:type
           rdf:resource="http://purl.org/dc/dcmitype/StillImage" />
        <dc:title />
      </cc:Work>
    </rdf:RDF>
  </metadata>
  <defs
     id="defs10" />
  <sodipodi:namedview
     pagecolor="#ffffff"
     bordercolor="#666666"
     borderopacity="1"
     objecttolerance="10"
     gridtolerance="10"
     guidetolerance="10"
     inkscape:pageopacity="0"
     inkscape:pageshadow="2"
     inkscape:window-width="1920"
     inkscape:window-height="1016"
     id="namedview8"
     showgrid="false"
     inkscape:zoom="9.8333333"
     inkscape:cx="-42.61017"
     inkscape:cy="11.38983"
     inkscape:window-x="0"
     inkscape:window-y="27"
     inkscape:window-maximized="1"
     inkscape:current-layer="svg6" />
  <path
     d="M0 0h24v24H0V0z"
     fill="none"
     id="path2" />
  <path
     id="text818"
     style="font-style:normal;font-variant:normal;font-weight:bold;font-stretch:normal;font-size:29.15095139px;line-height:1.25;font-family:Gayathri;-inkscape-font-specification:'Gayathri Bold';letter-spacing:0px;word-spacing:0px;fill:#000000;fill-opacity:1;stroke:none;stroke-width:1"
     d="m 12.460938,1.7246094 c -0.455484,0 -1.42182,0.1142669 -1.621094,0.5839844 L 2.7539062,21.025391 c -0.014234,0.0427 -0.029297,0.0862 -0.029297,0.128906 0,0.355846 0.5849423,0.568359 1.1542968,0.568359 0.4697175,0 0.9383015,-0.142495 1.0664063,-0.441406 l 2.6191406,-6.078125 h 8.8691411 l 2.603515,5.908203 c 0.199274,0.455484 0.997052,0.611328 1.566407,0.611328 0.455483,0 1.523437,-0.183989 1.523437,-0.767578 0,-0.05693 -0.0145,-0.114377 -0.04297,-0.185547 L 13.941406,2.3222656 C 13.727898,1.8525481 12.944889,1.7246094 12.460938,1.7246094 Z m -0.511719,3.3300781 3.771484,8.5546875 H 8.2617188 Z" />
</svg>
