<?xml version="1.0" encoding="UTF-8" standalone="no"?>
<svg
   xmlns:dc="http://purl.org/dc/elements/1.1/"
   xmlns:cc="http://creativecommons.org/ns#"
   xmlns:rdf="http://www.w3.org/1999/02/22-rdf-syntax-ns#"
   xmlns:svg="http://www.w3.org/2000/svg"
   xmlns="http://www.w3.org/2000/svg"
   xmlns:sodipodi="http://sodipodi.sourceforge.net/DTD/sodipodi-0.dtd"
   xmlns:inkscape="http://www.inkscape.org/namespaces/inkscape"
   enable-background="new 0 0 24 24"
   height="24px"
   viewBox="0 0 24 24"
   width="24px"
   fill="#000000"
   version="1.1"
   id="svg6"
   sodipodi:docname="rotation.svg"
   inkscape:version="0.92.5 (2060ec1f9f, 2020-04-08)">
  <metadata
     id="metadata12">
    <rdf:RDF>
      <cc:Work
         rdf:about="">
        <dc:format>image/svg+xml</dc:format>
        <dc:type
           rdf:resource="http://purl.org/dc/dcmitype/StillImage" />
      </cc:Work>
    </rdf:RDF>
  </metadata>
  <defs
     id="defs10" />
  <sodipodi:namedview
     pagecolor="#ffffff"
     bordercolor="#666666"
     borderopacity="1"
     objecttolerance="10"
     gridtolerance="10"
     guidetolerance="10"
     inkscape:pageopacity="0"
     inkscape:pageshadow="2"
     inkscape:window-width="1920"
     inkscape:window-height="1016"
     id="namedview8"
     showgrid="false"
     inkscape:zoom="19.666667"
     inkscape:cx="6.4118901"
     inkscape:cy="8.8701225"
     inkscape:window-x="0"
     inkscape:window-y="27"
     inkscape:window-maximized="1"
     inkscape:current-layer="svg6" />
  <rect
     height="24"
     width="24"
     id="rect2"
     x="0.35593221"
     y="-0.050847452"
     style="fill:none" />
  <path
     style="opacity:1;fill:#000000;fill-opacity:1;fill-rule:evenodd;stroke:none;stroke-width:0.49133861;stroke-linecap:round;stroke-linejoin:miter;stroke-miterlimit:4;stroke-dasharray:none;stroke-dashoffset:0;stroke-opacity:1;paint-order:markers fill stroke"
     id="path822"
     sodipodi:type="arc"
     sodipodi:cx="12.084745"
     sodipodi:cy="11.915254"
     sodipodi:rx="11.525423"
     sodipodi:ry="11.525423"
     sodipodi:start="1.629195"
     sodipodi:end="1.6241057"
     sodipodi:open="true"
     d="M 11.412059,23.421029 A 11.525423,11.525423 0 0 1 0.57812339,11.257206 11.525423,11.525423 0 0 1 12.728152,0.40780369 11.525423,11.525423 0 0 1 23.593005,12.544018 11.525423,11.525423 0 0 1 11.470623,23.424304" />
  <path
     d="m 12.076272,0.88135555 c -6.0673229,0 -10.9915265,4.92420345 -10.9915265,10.99152545 0,6.067322 4.9242036,10.991526 10.9915265,10.991526 6.067322,0 10.991524,-4.924204 10.991524,-10.991526 0,-6.067322 -4.924202,-10.99152545 -10.991524,-10.99152545 z M 13.0765,18.632669 c -0.340738,0.340738 -0.934281,0.09893 -0.934281,-0.384702 v -0.879322 c -0.02197,0 -0.04396,0 -0.06594,0 -1.406917,0 -2.8138315,-0.538587 -3.8910013,-1.604765 C 6.6134828,14.192092 6.1958045,11.894865 6.932237,9.9383723 7.1410756,9.3778047 7.8775081,9.2349148 8.2951854,9.6635845 v 0 c 0.2418142,0.2418138 0.296772,0.5935425 0.1868565,0.9013055 -0.5056098,1.362949 -0.2198302,2.945728 0.8793217,4.04488 0.7694064,0.769409 1.7806284,1.132129 2.7918474,1.110144 v -1.033202 c 0,-0.49462 0.593543,-0.736433 0.934281,-0.384702 l 1.780625,1.780625 c 0.219832,0.219832 0.219832,0.560568 0,0.780398 z m 2.780855,-4.5395 v 0 c -0.241814,-0.241813 -0.29677,-0.593543 -0.186855,-0.901304 0.505609,-1.362951 0.21983,-2.94573 -0.879323,-4.0448823 -0.769406,-0.7694068 -1.780626,-1.1431188 -2.780855,-1.1211356 0,0 0,0 0,0 v 1.0332034 c 0,0.4946183 -0.593543,0.7364318 -0.934281,0.3847038 L 9.2844236,7.6741183 c -0.219831,-0.2198305 -0.219831,-0.5605678 0,-0.7803984 L 11.065051,5.1130928 c 0.340737,-0.3407372 0.934279,-0.098923 0.934279,0.3847034 v 0.8903137 c 1.428899,-0.021984 2.868787,0.4946185 3.956949,1.5937711 1.571788,1.5717878 1.989466,3.869018 1.253035,5.825508 -0.208841,0.571559 -0.93428,0.71445 -1.351959,0.28578 z"
     id="path4"
     inkscape:connector-curvature="0"
     style="fill:#ffffff;fill-opacity:1;stroke-width:1" />
</svg>
