<?xml version="1.0" encoding="UTF-8" standalone="no"?>
<svg
   xmlns:dc="http://purl.org/dc/elements/1.1/"
   xmlns:cc="http://creativecommons.org/ns#"
   xmlns:rdf="http://www.w3.org/1999/02/22-rdf-syntax-ns#"
   xmlns:svg="http://www.w3.org/2000/svg"
   xmlns="http://www.w3.org/2000/svg"
   xmlns:sodipodi="http://sodipodi.sourceforge.net/DTD/sodipodi-0.dtd"
   xmlns:inkscape="http://www.inkscape.org/namespaces/inkscape"
   enable-background="new 0 0 24 24"
   height="24px"
   viewBox="0 0 24 24"
   width="24px"
   fill="#000000"
   version="1.1"
   id="svg6"
   sodipodi:docname="move.svg"
   inkscape:version="0.92.5 (2060ec1f9f, 2020-04-08)">
  <metadata
     id="metadata12">
    <rdf:RDF>
      <cc:Work
         rdf:about="">
        <dc:format>image/svg+xml</dc:format>
        <dc:type
           rdf:resource="http://purl.org/dc/dcmitype/StillImage" />
        <dc:title></dc:title>
      </cc:Work>
    </rdf:RDF>
  </metadata>
  <defs
     id="defs10" />
  <sodipodi:namedview
     pagecolor="#ffffff"
     bordercolor="#666666"
     borderopacity="1"
     objecttolerance="10"
     gridtolerance="10"
     guidetolerance="10"
     inkscape:pageopacity="0"
     inkscape:pageshadow="2"
     inkscape:window-width="1920"
     inkscape:window-height="1016"
     id="namedview8"
     showgrid="false"
     inkscape:zoom="19.666667"
     inkscape:cx="0.70193668"
     inkscape:cy="12.630253"
     inkscape:window-x="0"
     inkscape:window-y="27"
     inkscape:window-maximized="1"
     inkscape:current-layer="svg6"
     inkscape:pagecheckerboard="true" />
  <rect
     height="25.932203"
     width="25.932203"
     id="rect2"
     x="-0.81355929"
     y="-1.0677966"
     style="fill:none;stroke-width:1" />
  <path
     style="opacity:1;fill:#ffffff;fill-opacity:1;fill-rule:evenodd;stroke:#000000;stroke-width:0.60000008;stroke-linecap:round;stroke-linejoin:miter;stroke-miterlimit:4;stroke-dasharray:none;stroke-dashoffset:0;stroke-opacity:1;paint-order:markers fill stroke"
     id="path822"
     sodipodi:type="arc"
     sodipodi:cx="11.877839"
     sodipodi:cy="12.008187"
     sodipodi:rx="10.713517"
     sodipodi:ry="10.768457"
     sodipodi:start="1.629195"
     sodipodi:end="1.6241064"
     d="M 11.252539,22.758288 A 10.713517,10.768457 0 0 1 1.1817986,11.393357 10.713517,10.768457 0 0 1 12.475925,1.2565228 10.713517,10.768457 0 0 1 22.575401,12.595662 10.713517,10.768457 0 0 1 11.306971,22.761347"
     sodipodi:open="true" />
  <g
     transform="matrix(0.03537285,0,0,0.03537284,3.1973513,3.4393469)"
     id="g6"
     style="fill:#000000;fill-opacity:1;stroke:none;stroke-width:16.96216202;stroke-miterlimit:4;stroke-dasharray:none;stroke-opacity:1">
    <g
       id="g4"
       style="fill:#000000;fill-opacity:1;stroke:none;stroke-width:16.96216202;stroke-miterlimit:4;stroke-dasharray:none;stroke-opacity:1">
      <path
         inkscape:connector-curvature="0"
         d="m 487.557,237.789 -64,-64 c -3.051,-3.051 -7.659,-3.947 -11.627,-2.304 -3.989,1.643 -6.592,5.547 -6.592,9.856 v 32 h -128 v -128 h 32 c 4.309,0 8.213,-2.603 9.856,-6.592 1.643,-3.989 0.725,-8.576 -2.304,-11.627 l -64,-64 c -4.16,-4.16 -10.923,-4.16 -15.083,0 l -64,64 c -3.051,3.072 -3.968,7.637 -2.325,11.627 1.643,3.989 5.547,6.592 9.856,6.592 h 32 v 128 h -128 v -32 c 0,-4.309 -2.603,-8.213 -6.592,-9.856 -3.925,-1.664 -8.555,-0.747 -11.627,2.304 l -64,64 c -4.16,4.16 -4.16,10.923 0,15.083 l 64,64 c 3.072,3.072 7.68,4.011 11.627,2.304 3.989,-1.621 6.592,-5.525 6.592,-9.835 v -32 h 128 v 128 h -32 c -4.309,0 -8.213,2.603 -9.856,6.592 -1.643,3.989 -0.725,8.576 2.304,11.627 l 64,64 c 2.091,2.069 4.821,3.115 7.552,3.115 2.731,0 5.461,-1.045 7.552,-3.115 l 64,-64 c 3.051,-3.051 3.968,-7.637 2.304,-11.627 -1.664,-3.989 -5.547,-6.592 -9.856,-6.592 h -32 v -128 h 128 v 32 c 0,4.309 2.603,8.213 6.592,9.856 3.947,1.685 8.576,0.747 11.627,-2.304 l 64,-64 c 4.16,-4.181 4.16,-10.922 0,-15.104 z"
         id="path2"
         style="fill:#000000;fill-opacity:1;stroke:none;stroke-width:16.96216202;stroke-miterlimit:4;stroke-dasharray:none;stroke-opacity:1" />
    </g>
  </g>
</svg>
